<svg xmlns="http://www.w3.org/2000/svg" xmlns:xlink="http://www.w3.org/1999/xlink" viewBox="0 0 1920 3229.54"><defs><style>.cls-1,.cls-11,.cls-12,.cls-3{fill:none;}.cls-2{fill-rule:evenodd;}.cls-11,.cls-12,.cls-3{stroke:#000;stroke-linecap:round;}.cls-3{stroke-width:8px;}.cls-4{fill:#607cde;}.cls-5{fill:#ffae81;}.cls-6{fill:#a2e0b3;}.cls-7{fill:#fa95d1;}.cls-8{fill:#fffa88;}.cls-9{fill:#d497f1;}.cls-10{clip-path:url(#clip-path);}.cls-11,.cls-12{stroke-linejoin:round;}.cls-11{stroke-width:7px;}.cls-12{stroke-width:6px;}</style><clipPath id="clip-path"><rect class="cls-1" x="181.23" y="928.29" width="128.24" height="128.24" transform="translate(-736.78 708.68) rotate(-60)"/></clipPath></defs><title>Fondos Port</title><g id="Outline"><path class="cls-2" d="M55.35,0a3.7,3.7,0,0,1,2.59,1.07A3.65,3.65,0,0,1,59,3.66V84.24a3.66,3.66,0,1,1-7.32,0V3.66a3.65,3.65,0,0,1,1.07-2.59A3.7,3.7,0,0,1,55.35,0ZM40.7,14.65a3.7,3.7,0,0,1,2.59,1.07,3.65,3.65,0,0,1,1.07,2.59V69.59a3.66,3.66,0,1,1-7.32,0V18.31a3.65,3.65,0,0,1,1.07-2.59A3.7,3.7,0,0,1,40.7,14.65Zm29.3,0a3.67,3.67,0,0,1,3.67,3.66V69.59a3.67,3.67,0,1,1-7.33,0V18.31A3.65,3.65,0,0,1,70,14.65Zm-43.95,11a3.65,3.65,0,0,1,3.66,3.66V58.6a3.66,3.66,0,1,1-7.32,0V29.3a3.65,3.65,0,0,1,3.66-3.66Zm58.6,0a3.67,3.67,0,0,1,3.67,3.66V58.6a3.67,3.67,0,1,1-7.33,0V29.3a3.7,3.7,0,0,1,1.07-2.59A3.65,3.65,0,0,1,84.65,25.64ZM11.4,33a3.67,3.67,0,0,1,3.66,3.67V51.28A3.65,3.65,0,0,1,14,53.87a3.67,3.67,0,0,1-5.18,0,3.65,3.65,0,0,1-1.07-2.59V36.63A3.67,3.67,0,0,1,11.4,33Zm87.9,0A3.69,3.69,0,0,1,103,36.63V51.28a3.67,3.67,0,1,1-7.33,0V36.63A3.67,3.67,0,0,1,99.3,33Z"/><path class="cls-3" d="M1738.91,936.18c3.56-11.87,14.49-23.54,20.77-3.75,8.11,25.48,17.41,13.11,21,3.75,3.73-8.75,13.5-21,22.86,0s18.61.39,22.07-8.35"/><path class="cls-3" d="M1799.86,978.37c3.55-11.87,14.49-23.53,20.77-3.75,8.11,25.48,17.4,13.12,21,3.75,3.72-8.74,13.5-21,22.85,0s18.61.4,22.07-8.35"/><path class="cls-3" d="M59.31,702.39c3.55-11.87,14.48-23.53,20.77-3.75,8.1,25.48,17.4,13.12,21,3.75,3.72-8.74,13.5-21,22.85,0s18.61.4,22.07-8.35"/><circle class="cls-4" cx="1825.65" cy="831.53" r="18.75"/><ellipse class="cls-5" cx="329.46" cy="785.27" rx="19.34" ry="18.75"/><ellipse class="cls-6" cx="594.35" cy="923.57" rx="19.34" ry="18.75"/><ellipse class="cls-7" cx="1731.3" cy="186.9" rx="19.34" ry="18.75"/><circle class="cls-8" cx="1549.04" cy="921.78" r="18.75"/><circle class="cls-8" cx="310.04" cy="366.78" r="18.75"/><circle class="cls-4" cx="49.35" cy="914.78" r="9.96"/><circle class="cls-5" cx="845.75" cy="561.41" r="17.58"/><circle class="cls-9" cx="916.61" cy="989.56" r="10.39"/><circle class="cls-4" cx="623.65" cy="700.3" r="9.96"/><circle class="cls-5" cx="976.43" cy="107.24" r="9.96"/><circle class="cls-7" cx="194.68" cy="144.75" r="9.96"/><circle class="cls-8" cx="749.06" cy="220.93" r="9.96"/><path d="M638.88,195.62c3.47-1.38,2.43-6.24,0-8.32-3.81-3.12-9.36-1.38-11.78,2.78-5.21,8.32,3.12,17.33,11.78,17,9.37-.7,14.91-10.06,12.83-18.73-2.42-10.4-13.52-15.6-23.23-12.48-9,2.77-14.56,12.14-13.87,21.5a23.21,23.21,0,0,0,19.07,20.46,25.31,25.31,0,0,0,29.13-24.28,3.31,3.31,0,0,1,3.81-3.12c2.78,0,3.47,2.78,3.12,4.86-1.38,16.29-15.6,29.82-32.24,29.82-20.46,0-36.41-21.5-27.74-40.92,8.67-18.72,35.71-22.53,46.11-4.16a22.51,22.51,0,0,1-3.12,27.39,21,21,0,0,1-26.69,2.43c-7.63-5.55-10.06-17-3.82-25,5.9-8,19.07-8.33,24.27.69,3.82,6.59,0,18-8.67,17-5.54,0-10.4-5.9-7.28-11.1,2.08-3.12,6.59-2.08,8,.35C639.23,194.58,638.88,195.62,638.88,195.62Z"/><g class="cls-10"><path d="M244.42,991.88c.82-5.7-6.46-8-11.1-6.42-7.11,2.69-9.07,11.43-5.38,17.87,7.09,13.36,25.54,9.2,31.75-2.64,6.29-13-1.93-27.64-15.1-31.55-15.75-4.77-31.24,6-34.56,21.39-3.24,14.17,5,28.79,18,35.07a35.73,35.73,0,0,0,42-9.68,39,39,0,0,0-9.95-57.58,5.09,5.09,0,0,1-1.22-7.49c2.13-3.7,6.37-2.49,8.88-.43,20.68,14.41,27.77,43.8,14.95,66-15.76,27.3-56.74,32-76,5.49-18.31-26-2.56-65,30-64.75,15.58-.26,30.05,9.94,34.15,25.27,3.92,14.6-3,30.94-17.33,37.5-13.28,5.91-30.42.33-36.26-14.14-6.1-14,3.59-31.87,19.63-31.86,11.73,0,24.07,13.89,16,24.66-4.28,7.4-15.88,9.34-20.42,1.17-2.56-5.19,2.3-10.4,6.61-10.38C243.3,990.61,244.42,991.88,244.42,991.88Z"/></g><circle class="cls-5" cx="1393.21" cy="143.37" r="17.58"/><circle class="cls-9" cx="1444.78" cy="367.23" r="21.1"/><circle class="cls-7" cx="1278.75" cy="935.06" r="9.96"/><ellipse class="cls-6" cx="1223.75" cy="579.06" rx="19.34" ry="18.75"/><rect class="cls-11" x="1508.56" y="3003.48" width="59" height="59" transform="translate(-1694.15 1975.91) rotate(-45)"/><line class="cls-11" x1="395.04" y1="2524.45" x2="448.14" y2="2577.55"/><line class="cls-11" x1="448.54" y1="2524.84" x2="395.44" y2="2577.93"/><circle class="cls-11" cx="1293.06" cy="2415.99" r="29.5"/><circle class="cls-11" cx="121.06" cy="1214.99" r="29.5"/><polygon class="cls-11" points="1002.13 1729.2 1031.54 1780.5 972.71 1780.5 1002.13 1729.2"/><polygon class="cls-11" points="1612.94 273.22 1670.02 288.69 1628.42 330.29 1612.94 273.22"/><path class="cls-12" d="M1650.9,1881a37.65,37.65,0,0,0,5,53,33.87,33.87,0,0,0,47.7-4.5,30.49,30.49,0,0,0-4-42.93,27.45,27.45,0,0,0-38.64,3.65,24.7,24.7,0,0,0,3.29,34.77,22.22,22.22,0,0,0,31.29-3,20,20,0,0,0-2.66-28.17c-7.66-6.34-17.93-4.8-23.93,3.13-3.58,4.74-5,13,0,18,7,7,14.87,4.21,20-2"/><path class="cls-12" d="M993.06,2997.5a36.9,36.9,0,0,0-36.9-36.9,29.52,29.52,0,0,0-29.51,29.52,23.61,23.61,0,0,0,23.61,23.61,18.89,18.89,0,0,0,18.89-18.89A15.11,15.11,0,0,0,954,2979.73,12.09,12.09,0,0,0,942,2991.82a9.67,9.67,0,0,0,9.67,9.67,7.75,7.75,0,0,0,7.74-7.74,6.19,6.19,0,0,0-6.19-6.19,5,5,0,0,0-4.95,5"/><line class="cls-11" x1="1465.46" y1="1356.06" x2="1465.46" y2="1431.15"/><line class="cls-11" x1="1503.02" y1="1394.16" x2="1427.93" y2="1394.16"/><line class="cls-11" x1="1438.57" y1="1367.2" x2="1491.66" y2="1420.29"/><line class="cls-11" x1="1492.06" y1="1367.58" x2="1438.97" y2="1420.68"/><line class="cls-11" x1="442.46" y1="348.06" x2="442.46" y2="423.15"/><line class="cls-11" x1="480.02" y1="386.16" x2="404.93" y2="386.16"/><line class="cls-11" x1="415.57" y1="359.2" x2="468.66" y2="412.29"/><line class="cls-11" x1="469.06" y1="359.58" x2="415.97" y2="412.68"/><path d="M1767.91,2735.71c3.92,0,7.68-3.45,7.5-7.5a7.63,7.63,0,0,0-7.5-7.5c-3.92,0-7.68,3.45-7.5,7.5a7.63,7.63,0,0,0,7.5,7.5Z"/><path d="M1728.27,2711.44c3.92,0,7.68-3.45,7.5-7.5a7.63,7.63,0,0,0-7.5-7.5c-3.93,0-7.69,3.45-7.5,7.5a7.63,7.63,0,0,0,7.5,7.5Z"/><path d="M1761.22,2690.79c3.92,0,7.68-3.45,7.5-7.5a7.64,7.64,0,0,0-7.5-7.5c-3.93,0-7.69,3.45-7.5,7.5a7.62,7.62,0,0,0,7.5,7.5Z"/><path d="M1789.91,1253.71c3.92,0,7.68-3.45,7.5-7.5a7.63,7.63,0,0,0-7.5-7.5c-3.92,0-7.68,3.45-7.5,7.5a7.63,7.63,0,0,0,7.5,7.5Z"/><path d="M1750.27,1229.44c3.92,0,7.68-3.45,7.5-7.5a7.63,7.63,0,0,0-7.5-7.5c-3.93,0-7.69,3.45-7.5,7.5a7.63,7.63,0,0,0,7.5,7.5Z"/><path d="M1783.22,1208.79c3.92,0,7.68-3.45,7.5-7.5a7.64,7.64,0,0,0-7.5-7.5c-3.93,0-7.69,3.45-7.5,7.5a7.62,7.62,0,0,0,7.5,7.5Z"/><rect class="cls-11" x="1087.39" y="728.46" width="59.11" height="59.11" transform="translate(110.32 -141.35) rotate(7.62)"/><path d="M1412.65,1030.25c3.93,0,7.68-3.45,7.5-7.5a7.62,7.62,0,0,0-7.5-7.5c-3.92,0-7.68,3.45-7.5,7.5a7.63,7.63,0,0,0,7.5,7.5Z"/><path d="M1373,1006c3.92,0,7.68-3.45,7.5-7.5a7.63,7.63,0,0,0-7.5-7.5c-3.92,0-7.68,3.45-7.5,7.5a7.62,7.62,0,0,0,7.5,7.5Z"/><path d="M1406,985.33c3.92,0,7.68-3.45,7.5-7.5a7.63,7.63,0,0,0-7.5-7.5c-3.93,0-7.68,3.45-7.5,7.5a7.63,7.63,0,0,0,7.5,7.5Z"/><path class="cls-2" d="M119.68,1766.89a2,2,0,0,1,1.39.58,2,2,0,0,1,.58,1.4v43.59a2,2,0,0,1-.58,1.4,2,2,0,0,1-2.79,0,2,2,0,0,1-.58-1.4v-43.59a2,2,0,0,1,.58-1.4,2,2,0,0,1,1.4-.58Zm-7.9,7.93a2,2,0,0,1,2,2v27.73a2,2,0,0,1-.58,1.4,1.94,1.94,0,0,1-2.79,0,2,2,0,0,1-.58-1.4V1776.8a2,2,0,0,1,2-2Zm15.79,0a2,2,0,0,1,2,2v27.73a2,2,0,0,1-.58,1.4,1.94,1.94,0,0,1-1.39.59,2,2,0,0,1-2-2V1776.8a2,2,0,0,1,.57-1.4A2,2,0,0,1,127.57,1774.82Zm-23.68,5.94a2,2,0,0,1,2,2v15.85a2,2,0,1,1-4,0v-15.85a2,2,0,0,1,.58-1.4,2,2,0,0,1,1.39-.58Zm31.57,0a2,2,0,0,1,2,2v15.85a2,2,0,0,1-.57,1.4,2,2,0,0,1-1.4.58,2,2,0,0,1-2-2v-15.85a2,2,0,0,1,.58-1.4A2,2,0,0,1,135.46,1780.76Zm-39.46,4a2,2,0,0,1,2,2v7.93a2,2,0,1,1-3.94,0v-7.93a2,2,0,0,1,.58-1.4A2,2,0,0,1,96,1784.72Zm47.35,0a2,2,0,0,1,1.4.58,2,2,0,0,1,.58,1.4v7.93a2,2,0,0,1-2,2A2,2,0,0,1,142,1796a2,2,0,0,1-.58-1.4v-7.93a2,2,0,0,1,.58-1.4A2,2,0,0,1,143.35,1784.72Z"/><path class="cls-3" d="M514.43,1350.6c3.79-12.66,15.46-25.12,22.17-4,8.65,27.21,18.58,14,22.46,4,4-9.33,14.41-22.4,24.39,0s19.87.43,23.57-8.9"/><path class="cls-3" d="M579.49,1395.65c3.79-12.67,15.46-25.13,22.18-4,8.64,27.2,18.57,14,22.45,4,4-9.34,14.42-22.4,24.39,0s19.87.42,23.57-8.91"/><path class="cls-3" d="M1666.77,2127.59c3.79-12.66,15.47-25.12,22.17-4,8.66,27.21,18.58,14,22.46,4,4-9.33,14.42-22.4,24.4,0s19.87.43,23.56-8.91"/><circle class="cls-4" cx="1485.35" cy="1579.22" r="20.02"/><ellipse class="cls-5" cx="1770" cy="1695.58" rx="20.64" ry="20.02"/><ellipse class="cls-6" cx="779.05" cy="2134.74" rx="20.64" ry="20.02"/><ellipse class="cls-6" cx="981.05" cy="1638.74" rx="20.64" ry="20.02"/><ellipse class="cls-6" cx="1828.05" cy="3051.74" rx="20.64" ry="20.02"/><ellipse class="cls-7" cx="301.1" cy="1695.58" rx="20.64" ry="20.02"/><circle class="cls-8" cx="1696.8" cy="2034.65" r="20.02"/><circle class="cls-8" cx="1564.17" cy="1384.03" r="13.76"/><circle class="cls-4" cx="197.25" cy="2125.36" r="10.64"/><circle class="cls-5" cx="425.59" cy="1233.89" r="18.77"/><circle class="cls-9" cx="1266.39" cy="2037.15" r="22.52"/><circle class="cls-4" cx="810.33" cy="1896.39" r="10.64"/><circle class="cls-5" cx="1186.94" cy="1263.29" r="10.64"/><circle class="cls-7" cx="352.4" cy="1303.33" r="10.64"/><circle class="cls-8" cx="769.04" cy="1521.04" r="10.64"/><path d="M470,2013.26c3.7-1.48,2.59-6.66,0-8.88-4.07-3.33-10-1.48-12.58,3-5.56,8.88,3.33,18.51,12.58,18.14,10-.74,15.92-10.74,13.7-20-2.6-11.1-14.44-16.66-24.8-13.32-9.63,3-15.55,12.95-14.81,22.94A24.75,24.75,0,0,0,464.46,2037,27,27,0,0,0,495.55,2011a3.53,3.53,0,0,1,4.07-3.33c3,0,3.7,3,3.33,5.18-1.48,17.4-16.65,31.84-34.42,31.84-21.84,0-38.87-23-29.61-43.68,9.25-20,38.12-24.06,49.23-4.44a24.05,24.05,0,0,1-3.33,29.24,22.42,22.42,0,0,1-28.51,2.59c-8.14-5.92-10.73-18.14-4.07-26.65,6.3-8.51,20.36-8.88,25.91.74,4.07,7,0,19.25-9.25,18.14-5.92,0-11.11-6.3-7.77-11.85,2.22-3.33,7-2.22,8.51.37.74,3,.37,4.07.37,4.07Z"/><circle class="cls-9" cx="760.53" cy="1228.98" r="22.52"/><circle class="cls-5" cx="1363.91" cy="1720" r="10.64"/><path class="cls-3" d="M87.37,2260.66c-3.55,11.87-14.48,23.54-20.77,3.75-8.11-25.48-17.4-13.11-21-3.75-3.73,8.75-13.51,21-22.86,0S4.1,2260.27.64,2269"/><circle class="cls-4" cx="61.59" cy="2407.5" r="18.75"/><ellipse class="cls-5" cx="1557.77" cy="2453.76" rx="19.34" ry="18.75"/><ellipse class="cls-6" cx="1292.89" cy="2315.46" rx="19.34" ry="18.75"/><ellipse class="cls-7" cx="155.94" cy="3052.13" rx="19.34" ry="18.75"/><circle class="cls-8" cx="338.19" cy="2317.26" r="18.75"/><circle class="cls-8" cx="1577.19" cy="2872.26" r="18.75"/><circle class="cls-4" cx="1837.89" cy="2324.25" r="9.96"/><circle class="cls-5" cx="1041.48" cy="2677.62" r="17.58"/><circle class="cls-9" cx="970.62" cy="2249.47" r="10.39"/><circle class="cls-4" cx="1263.58" cy="2538.74" r="9.96"/><circle class="cls-5" cx="910.8" cy="3131.79" r="9.96"/><circle class="cls-7" cx="1692.55" cy="3094.29" r="9.96"/><circle class="cls-7" cx="1353.68" cy="2857.42" r="15.09"/><circle class="cls-8" cx="1138.18" cy="3018.1" r="9.96"/><circle class="cls-5" cx="494.02" cy="3095.67" r="17.58"/><circle class="cls-9" cx="442.45" cy="2871.8" r="21.1"/><circle class="cls-7" cx="608.48" cy="2303.98" r="9.96"/><ellipse class="cls-6" cx="663.48" cy="2659.98" rx="19.34" ry="18.75"/><path d="M356.58,3121.79c3.92,0,7.68-3.45,7.5-7.5a7.63,7.63,0,0,0-7.5-7.5c-3.92,0-7.68,3.45-7.5,7.5a7.63,7.63,0,0,0,7.5,7.5Z"/><path d="M396.22,3146.06c3.93,0,7.69-3.45,7.5-7.5a7.63,7.63,0,0,0-7.5-7.5c-3.92,0-7.68,3.45-7.5,7.5a7.64,7.64,0,0,0,7.5,7.5Z"/><path d="M363.27,3166.7c3.93,0,7.69-3.45,7.5-7.5a7.63,7.63,0,0,0-7.5-7.5c-3.92,0-7.68,3.45-7.5,7.5a7.63,7.63,0,0,0,7.5,7.5Z"/></g></svg>