<svg width="601" height="492" viewBox="0 0 601 492" fill="#617CDE" xmlns="http://www.w3.org/2000/svg">
               
<g filter="url(#filter0_d_2_3)">
<path d="M363.822 14.2546C337.826 3.03305 314.458 -0.865644 294.025 0.1567C209.211 4.40018 180.834 146.194 95.9146 146.194C16.6225 146.194 -0.994848 237.466 0.0423709 303.438C0.55641 336.134 9.94742 368.225 27.6868 395.694C61.1669 447.538 117.796 496.901 183.285 447.52C288.897 367.884 425.596 461.442 500.123 477.035C559.744 489.51 582.62 377.908 586.606 320.548C589.794 293.26 575.048 227.769 490.558 184.108C384.945 129.532 488.964 68.2736 363.822 14.2546Z" fill="#617CDE" fill-opacity="1" shape-rendering="crispEdges"/>
</g>
<defs>
<filter id="filter0_d_2_3" x="0" y="0" width="601" height="492" filterUnits="userSpaceOnUse" color-interpolation-filters="sRGB">
<feFlood flood-opacity="0" result="BackgroundImageFix"/>
<feColorMatrix in="SourceAlpha" type="matrix" values="0 0 0 0 0 0 0 0 0 0 0 0 0 0 0 0 0 0 127 0" result="hardAlpha"/>
<feOffset dx="10" dy="10"/>
<feGaussianBlur stdDeviation="2"/>
<feComposite in2="hardAlpha" operator="out"/>
<feColorMatrix type="matrix" values="0 0 0 0 0 0 0 0 0 0 0 0 0 0 0 0 0 0 0.25 0"/>
<feBlend mode="normal" in2="BackgroundImageFix" result="effect1_dropShadow_2_3"/>
<feBlend mode="normal" in="SourceGraphic" in2="effect1_dropShadow_2_3" result="shape"/>
</filter>
</defs>
            </svg>